<svg id="svg" version="1.1" width="400" height="410" xmlns="http://www.w3.org/2000/svg" xmlns:xlink="http://www.w3.org/1999/xlink" style="display: block;"><g id="svgg"><path id="path0" d="M152.500 0.938 C 151.400 1.379,148.700 2.316,146.500 3.020 C 119.888 11.531,105.590 43.223,117.409 67.500 C 121.057 74.994,132.267 88.000,135.079 88.000 C 135.632 88.000,136.000 115.998,136.000 158.040 C 136.000 254.284,127.577 244.381,209.770 244.774 L 267.041 245.048 273.020 257.624 C 276.309 264.542,279.000 270.350,279.000 270.533 C 279.000 270.865,285.840 285.479,293.026 300.500 C 296.837 308.466,302.519 320.629,308.207 333.000 C 318.662 355.736,320.434 357.534,332.224 357.362 C 338.545 357.270,341.210 356.631,348.500 353.461 C 350.150 352.743,353.806 351.250,356.625 350.142 C 359.444 349.034,363.719 347.250,366.125 346.177 C 368.531 345.104,374.325 342.737,379.000 340.917 C 395.937 334.324,400.000 330.267,400.000 319.948 C 400.000 301.124,388.689 299.653,356.000 314.226 C 349.085 317.308,349.059 317.304,347.056 312.631 C 346.033 310.244,343.405 304.514,341.216 299.896 C 339.026 295.278,336.100 288.993,334.713 285.928 C 332.300 280.599,328.860 273.263,319.505 253.500 C 317.162 248.550,313.788 241.350,312.009 237.500 C 295.295 201.346,301.350 204.000,235.596 204.000 L 188.000 204.000 188.000 185.000 L 188.000 166.000 220.833 166.000 C 258.343 166.000,262.941 165.455,268.976 160.289 L 273.000 156.844 273.000 147.782 C 273.000 130.936,270.477 130.035,223.250 130.015 L 188.000 130.000 188.000 112.051 L 188.000 94.102 194.250 91.091 C 235.551 71.196,228.823 13.419,183.810 1.437 C 178.069 -0.091,155.944 -0.444,152.500 0.938 M118.500 104.263 C 98.736 108.169,69.686 121.835,51.956 135.569 C 37.613 146.680,14.812 177.652,10.781 191.502 C 10.462 192.601,9.006 196.650,7.546 200.500 C -1.122 223.368,-2.707 260.408,3.844 287.000 C 16.388 337.913,58.951 382.757,111.000 399.896 C 128.769 405.747,129.893 406.035,146.417 408.955 C 161.059 411.542,197.815 409.986,215.500 406.031 C 220.663 404.876,222.018 404.483,233.000 400.956 C 247.308 396.361,269.830 385.103,278.500 378.212 C 279.050 377.775,281.525 376.025,284.000 374.322 C 286.475 372.620,293.198 366.764,298.939 361.308 L 309.378 351.389 305.792 343.945 C 303.820 339.850,299.664 331.212,296.557 324.750 C 289.889 310.879,291.504 311.354,281.000 320.181 C 243.893 351.363,195.034 366.764,153.000 360.527 C 140.052 358.606,129.250 355.585,115.500 350.039 C 104.102 345.442,82.471 329.827,74.500 320.442 C 72.300 317.852,70.042 315.230,69.483 314.616 C 33.853 275.531,39.860 211.627,82.924 171.611 C 85.358 169.350,88.198 166.685,89.236 165.688 C 94.459 160.675,119.443 147.000,123.380 147.000 C 124.756 147.000,125.001 145.608,125.004 137.750 C 125.006 132.662,125.301 122.763,125.658 115.750 C 126.200 105.127,126.074 103.023,124.904 103.138 C 124.132 103.213,121.250 103.720,118.500 104.263 " stroke="none" fill="#ee9d3b" fill-rule="evenodd"></path></g></svg>